HIERARCHY
ROOT mixamorig:Hips
{
	OFFSET 0.00 0.00 0.00
	CHANNELS 6 Xposition Yposition Zposition Zrotation Yrotation Xrotation
	JOINT mixamorig:Spine
	{
		OFFSET	0.0125	10.4452	-0.9963
		CHANNELS 3 Zrotation Yrotation Xrotation
		JOINT mixamorig:Spine1
		{
			OFFSET	0.0145	12.1861	-1.1623
			CHANNELS 3 Zrotation Yrotation Xrotation
			JOINT mixamorig:Spine2
			{
				OFFSET	0.0166	13.9270	-1.3284
				CHANNELS 3 Zrotation Yrotation Xrotation
				JOINT mixamorig:Neck
				{
					OFFSET	0.0187	15.6679	-1.4944
					CHANNELS 3 Zrotation Yrotation Xrotation
					JOINT mixamorig:Head
					{
						OFFSET	-0.0000	7.0878	0.8887
						CHANNELS 3 Zrotation Yrotation Xrotation
						End Site
						{
							OFFSET -0.0000 21.3244 2.6737
						}
					}
				}
				JOINT mixamorig:LeftShoulder
				{
					OFFSET	6.2331	12.5732	-1.4620
					CHANNELS 3 Zrotation Yrotation Xrotation
					JOINT mixamorig:LeftArm
					{
						OFFSET	12.4288	-6.1895	0.0647
						CHANNELS 3 Zrotation Yrotation Xrotation
						JOINT mixamorig:LeftForeArm
						{
							OFFSET	12.5822	-17.6989	-0.0651
							CHANNELS 3 Zrotation Yrotation Xrotation
							JOINT mixamorig:LeftHand
							{
								OFFSET	10.9147	-21.0687	11.6035
								CHANNELS 3 Zrotation Yrotation Xrotation
								JOINT mixamorig:LeftHandThumb1
								{
									OFFSET	-1.7358	-3.6666	2.6651
									CHANNELS 3 Zrotation Yrotation Xrotation
									JOINT mixamorig:LeftHandThumb2
									{
										OFFSET	-1.3886	-2.9333	2.1321
										CHANNELS 3 Zrotation Yrotation Xrotation
										JOINT mixamorig:LeftHandThumb3
										{
											OFFSET	-1.7918	-3.3945	1.6896
											CHANNELS 3 Zrotation Yrotation Xrotation
											End Site
											{
												OFFSET -1.1716 -2.6948 1.2270
											}
										}
									}
								}
								JOINT mixamorig:LeftHandIndex1
								{
									OFFSET	1.2042	-11.6606	7.5887
									CHANNELS 3 Zrotation Yrotation Xrotation
									JOINT mixamorig:LeftHandIndex2
									{
										OFFSET	-0.0885	-2.2672	1.0042
										CHANNELS 3 Zrotation Yrotation Xrotation
										JOINT mixamorig:LeftHandIndex3
										{
											OFFSET	-0.3002	-1.9399	0.5096
											CHANNELS 3 Zrotation Yrotation Xrotation
											End Site
											{
												OFFSET -0.2176 -2.6233 0.6157
											}
										}
									}
								}
								JOINT mixamorig:LeftHandMiddle1
								{
									OFFSET	3.0635	-12.2364	5.5160
									CHANNELS 3 Zrotation Yrotation Xrotation
									JOINT mixamorig:LeftHandMiddle2
									{
										OFFSET	0.4236	-2.6124	0.6959
										CHANNELS 3 Zrotation Yrotation Xrotation
										JOINT mixamorig:LeftHandMiddle3
										{
											OFFSET	-0.0346	-2.2988	0.2871
											CHANNELS 3 Zrotation Yrotation Xrotation
											End Site
											{
												OFFSET 0.2796 -2.9102 0.5104
											}
										}
									}
								}
								JOINT mixamorig:LeftHandRing1
								{
									OFFSET	4.3250	-12.3373	2.7720
									CHANNELS 3 Zrotation Yrotation Xrotation
									JOINT mixamorig:LeftHandRing2
									{
										OFFSET	0.0343	-2.6042	-0.1448
										CHANNELS 3 Zrotation Yrotation Xrotation
										JOINT mixamorig:LeftHandRing3
										{
											OFFSET	-0.4080	-2.1150	-0.2682
											CHANNELS 3 Zrotation Yrotation Xrotation
											End Site
											{
												OFFSET -0.1807 -2.8052 -0.0224
											}
										}
									}
								}
								JOINT mixamorig:LeftHandPinky1
								{
									OFFSET	4.5316	-12.9281	-0.0800
									CHANNELS 3 Zrotation Yrotation Xrotation
									JOINT mixamorig:LeftHandPinky2
									{
										OFFSET	-0.2254	-1.6990	-0.6318
										CHANNELS 3 Zrotation Yrotation Xrotation
										JOINT mixamorig:LeftHandPinky3
										{
											OFFSET	-0.4223	-1.3628	-0.4724
											CHANNELS 3 Zrotation Yrotation Xrotation
											End Site
											{
												OFFSET -0.7253 -1.5757 -0.7080
											}
										}
									}
								}
							}
						}
					}
				}
				JOINT mixamorig:RightShoulder
				{
					OFFSET	-6.1994	12.5731	-1.5268
					CHANNELS 3 Zrotation Yrotation Xrotation
					JOINT mixamorig:RightArm
					{
						OFFSET	-12.4361	-6.1894	-0.0647
						CHANNELS 3 Zrotation Yrotation Xrotation
						JOINT mixamorig:RightForeArm
						{
							OFFSET	-12.5822	-17.6989	0.1601
							CHANNELS 3 Zrotation Yrotation Xrotation
							JOINT mixamorig:RightHand
							{
								OFFSET	-10.9147	-21.0687	11.5252
								CHANNELS 3 Zrotation Yrotation Xrotation
								JOINT mixamorig:RightHandThumb1
								{
									OFFSET	1.8326	-3.8313	2.8102
									CHANNELS 3 Zrotation Yrotation Xrotation
									JOINT mixamorig:RightHandThumb2
									{
										OFFSET	1.4660	-3.0650	2.2481
										CHANNELS 3 Zrotation Yrotation Xrotation
										JOINT mixamorig:RightHandThumb3
										{
											OFFSET	1.7022	-3.2799	1.5927
											CHANNELS 3 Zrotation Yrotation Xrotation
											End Site
											{
												OFFSET 0.9222 -2.4964 1.2260
											}
										}
									}
								}
								JOINT mixamorig:RightHandIndex1
								{
									OFFSET	-1.2113	-11.6910	7.5909
									CHANNELS 3 Zrotation Yrotation Xrotation
									JOINT mixamorig:RightHandIndex2
									{
										OFFSET	0.1340	-2.2478	1.0804
										CHANNELS 3 Zrotation Yrotation Xrotation
										JOINT mixamorig:RightHandIndex3
										{
											OFFSET	0.2833	-1.9852	0.4907
											CHANNELS 3 Zrotation Yrotation Xrotation
											End Site
											{
												OFFSET 0.2347 -2.6272 0.4660
											}
										}
									}
								}
								JOINT mixamorig:RightHandMiddle1
								{
									OFFSET	-3.1183	-12.4952	5.5338
									CHANNELS 3 Zrotation Yrotation Xrotation
									JOINT mixamorig:RightHandMiddle2
									{
										OFFSET	-0.3657	-2.5472	0.7803
										CHANNELS 3 Zrotation Yrotation Xrotation
										JOINT mixamorig:RightHandMiddle3
										{
											OFFSET	0.0506	-2.2906	0.2557
											CHANNELS 3 Zrotation Yrotation Xrotation
											End Site
											{
												OFFSET -0.1704 -2.9156 0.4516
											}
										}
									}
								}
								JOINT mixamorig:RightHandRing1
								{
									OFFSET	-4.3615	-12.5986	2.8743
									CHANNELS 3 Zrotation Yrotation Xrotation
									JOINT mixamorig:RightHandRing2
									{
										OFFSET	0.0394	-2.4666	-0.2159
										CHANNELS 3 Zrotation Yrotation Xrotation
										JOINT mixamorig:RightHandRing3
										{
											OFFSET	0.4323	-2.1153	-0.2184
											CHANNELS 3 Zrotation Yrotation Xrotation
											End Site
											{
												OFFSET 0.0751 -2.6586 -0.0626
											}
										}
									}
								}
								JOINT mixamorig:RightHandPinky1
								{
									OFFSET	-4.4132	-11.5032	0.4194
									CHANNELS 3 Zrotation Yrotation Xrotation
									JOINT mixamorig:RightHandPinky2
									{
										OFFSET	-0.1665	-2.1237	-0.7208
										CHANNELS 3 Zrotation Yrotation Xrotation
										JOINT mixamorig:RightHandPinky3
										{
											OFFSET	0.5102	-1.7553	-0.6317
											CHANNELS 3 Zrotation Yrotation Xrotation
											End Site
											{
												OFFSET 0.3407 -2.2265 -0.9448
											}
										}
									}
								}
							}
						}
					}
				}
			}
		}
	}
	JOINT mixamorig:LeftUpLeg
	{
		OFFSET	10.1286	-5.8029	-0.5827
		CHANNELS 3 Zrotation Yrotation Xrotation
		JOINT mixamorig:LeftLeg
		{
			OFFSET	4.2353	-40.9156	0.1368
			CHANNELS 3 Zrotation Yrotation Xrotation
			JOINT mixamorig:LeftFoot
			{
				OFFSET	2.7471	-36.6710	-5.9597
				CHANNELS 3 Zrotation Yrotation Xrotation
				JOINT mixamorig:LeftToeBase
				{
					OFFSET	2.4527	-12.3426	15.4410
					CHANNELS 3 Zrotation Yrotation Xrotation
					End Site
					{
						OFFSET 1.4532 0.2140 7.5769
					}
				}
			}
		}
	}
	JOINT mixamorig:RightUpLeg
	{
		OFFSET	-10.0150	-5.8029	-0.7207
		CHANNELS 3 Zrotation Yrotation Xrotation
		JOINT mixamorig:RightLeg
		{
			OFFSET	-4.2353	-40.9157	0.2580
			CHANNELS 3 Zrotation Yrotation Xrotation
			JOINT mixamorig:RightFoot
			{
				OFFSET	-2.7471	-36.6708	-6.0475
				CHANNELS 3 Zrotation Yrotation Xrotation
				JOINT mixamorig:RightToeBase
				{
					OFFSET	-2.4527	-12.3428	15.3607
					CHANNELS 3 Zrotation Yrotation Xrotation
					End Site
					{
						OFFSET -1.4532 0.2139 7.5074
					}
				}
			}
		}
	}
}
MOTION
Frames: 9
Frame Time: 0.0333333
0.0558 95.6848 0.8981 -1.1783 -0.1308 -1.5181 0.1274 -0.1363 0.9673 0.1021 -2.4805 1.0155 0.1456 -2.4776 1.0086 -1.4682 0.8106 -2.7715 3.5307 -1.8728 5.4707 10.9673 7.3148 1.0531 -29.8353 -22.8786 9.5601 7.6322 -0.7268 -3.0769 0.5151 12.1870 10.7037 2.1851 15.3013 5.4774 12.8424 1.8406 4.2183 -0.1542 0.3939 -1.0141 -3.7708 -0.0400 9.8733 -22.3720 -6.3822 12.0067 -17.9143 -3.9858 8.9589 -19.1683 -4.6900 5.3340 -10.7751 -1.3047 4.7702 -19.0377 -0.6477 10.6939 -16.7750 -5.5523 -10.9529 -3.4948 0.0481 4.6307 -16.7733 1.3450 11.9778 -18.5834 -5.2811 -17.0053 -11.1630 2.2221 8.0606 -0.0303 0.2880 -0.7243 -15.0611 2.5937 0.3315 32.5160 24.5740 6.9758 -7.6164 0.0227 -1.8065 -5.4799 -26.9991 4.1020 -14.3381 0.4795 19.4135 -2.9433 -0.1643 -8.2627 4.5033 1.2945 -2.6862 -8.2915 -3.4771 12.1085 24.7266 6.9323 13.9907 8.9463 1.9308 1.4315 8.8904 1.5581 9.9705 14.6607 1.7624 6.7983 9.0194 -0.9405 5.5416 8.9089 3.7847 -9.5017 7.8344 -0.2789 11.4992 16.5282 -3.1561 9.1241 20.2171 7.7348 -15.8325 -3.9094 2.4885 7.7116 13.0604 -4.9831 0.3493 -2.7287 3.6394 -11.3727 5.6896 10.2582 22.3650 0.4627 1.4291 -9.6731 0.0000 0.0000 -0.4642 0.7667 -13.3907 -12.0421 -3.3489 -5.2824 18.2301 2.3077 -3.3617 -4.3553 0.0000 -0.0000 -0.0000 
0.2312 95.6410 0.8624 -1.2832 -0.1490 -1.5403 0.1250 -0.1218 1.0047 0.0869 -2.4608 1.0860 0.1318 -2.4581 1.0796 -1.4175 0.7921 -2.7398 3.5759 -1.8894 5.4252 11.0276 7.1748 1.0430 -29.9049 -23.0131 9.5540 7.6319 -0.7165 -3.0575 0.5100 12.1225 10.7254 2.1952 15.3071 5.4800 12.8350 1.8508 4.2125 -0.1560 0.3932 -1.0142 -3.8556 -0.0607 9.9392 -22.2126 -6.3586 11.8827 -17.8362 -3.9757 8.9004 -19.2794 -4.7002 5.3825 -10.6632 -1.2991 4.7007 -18.9809 -0.6516 10.6593 -16.8748 -5.5626 -10.9566 -3.4472 0.0434 4.6036 -16.7473 1.3402 11.9637 -18.7452 -5.2751 -17.0022 -11.1630 2.2221 8.0606 -0.0313 0.2881 -0.7238 -14.9126 2.8417 0.3200 32.4019 24.6589 6.9581 -7.6165 0.0507 -1.8595 -5.5063 -27.0238 4.0393 -14.4435 0.4353 19.3595 -2.8781 -0.1919 -8.2867 4.5064 1.2965 -2.6836 -8.2250 -3.4587 12.0909 24.7127 6.9309 13.9781 8.9069 1.9219 1.3975 9.0686 1.5887 10.0215 14.5983 1.7618 6.7519 8.9508 -0.9593 5.4890 9.0508 3.7987 -9.5097 7.7699 -0.2680 11.4561 16.4813 -3.1584 9.0941 20.4402 7.7353 -15.8024 -3.9302 2.4955 7.6983 12.9741 -4.9544 0.3020 -2.7215 3.6762 -11.5360 5.6833 10.2260 22.7161 0.5870 1.4536 -9.8705 0.0000 -0.0000 -0.4458 0.7745 -13.4904 -12.0932 -3.4169 -5.2868 18.2892 2.4357 -3.2323 -4.3018 -0.0000 0.0000 -0.0000 
0.4009 95.6072 0.8501 -1.3797 -0.1563 -1.5665 0.1210 -0.1071 1.0369 0.0694 -2.4364 1.1479 0.1156 -2.4338 1.1421 -1.3728 0.7769 -2.6851 3.6189 -1.9065 5.4251 11.0667 7.1126 1.0398 -29.9210 -23.0607 9.5347 7.6316 -0.7028 -3.0315 0.5326 12.0505 10.7546 2.2051 15.3125 5.4838 12.8272 1.8624 4.2057 -0.1601 0.3929 -1.0174 -3.9375 -0.0807 10.0069 -22.0664 -6.3366 11.7689 -17.7640 -3.9662 8.8463 -19.4002 -4.7102 5.4404 -10.5605 -1.2937 4.6369 -18.9283 -0.6553 10.6271 -16.9908 -5.5739 -10.9475 -3.4040 0.0392 4.5789 -16.7230 1.3358 11.9504 -18.9451 -5.2712 -16.9722 -11.1630 2.2221 8.0606 -0.0320 0.2883 -0.7234 -14.8387 2.9895 0.3121 32.4019 24.7298 6.9717 -7.6165 0.0657 -1.8880 -5.4378 -27.1547 3.9208 -14.5178 0.4108 19.3293 -2.8274 -0.2130 -8.3050 4.5090 1.2976 -2.6833 -8.1329 -3.4255 12.1462 24.6689 6.9261 13.9383 8.8377 1.9063 1.3380 9.0924 1.5949 10.0040 14.6222 1.7620 6.7696 8.8866 -0.9514 5.4424 9.0476 3.7963 -9.5764 7.8425 -0.2802 11.5046 16.4574 -3.1382 9.0755 20.4768 7.7380 -15.8598 -3.8568 2.4709 7.7454 12.9349 -4.9414 0.2806 -2.7147 3.7126 -11.6459 5.6470 10.1824 22.9956 0.7188 1.4894 -10.0479 -0.0000 0.0000 -0.4395 0.7724 -13.5823 -12.0947 -3.4885 -5.3084 18.2968 2.5682 -3.1051 -4.2409 0.0000 0.0000 -0.0000 
0.5521 95.6018 0.9015 -1.4468 -0.1350 -1.6115 0.1124 -0.0929 1.0563 0.0448 -2.4013 1.1896 0.0922 -2.3989 1.1848 -1.3556 0.7739 -2.5682 3.6564 -1.9236 5.5316 11.0711 7.0949 1.0393 -29.8826 -23.0568 9.5096 7.6312 -0.6864 -3.0003 0.5723 11.9848 10.7939 2.2138 15.3162 5.4889 12.8189 1.8772 4.1968 -0.1703 0.3934 -1.0286 -3.9739 -0.0896 10.0408 -21.9998 -6.3265 11.7171 -17.7310 -3.9619 8.8216 -19.5050 -4.7187 5.4910 -10.5137 -1.2913 4.6078 -18.9043 -0.6569 10.6125 -17.1203 -5.5858 -10.9174 -3.3854 0.0374 4.5683 -16.7113 1.3336 11.9440 -19.2000 -5.2724 -16.8862 -11.1630 2.2221 8.0606 -0.0318 0.2882 -0.7234 -14.8074 3.0767 0.3072 32.4749 24.7996 7.0193 -7.6165 0.0770 -1.9095 -5.3136 -27.3449 3.7738 -14.4456 0.4032 19.3431 -2.8922 -0.1721 -8.2681 4.4898 1.2957 -2.6627 -7.9763 -3.3538 12.3976 24.5405 6.9122 13.8219 8.6916 1.8729 1.2122 8.6111 1.5229 9.7337 14.9203 1.7641 6.9916 8.8489 -0.8590 5.4241 8.5890 3.7398 -9.8518 8.3416 -0.3665 11.8384 16.5090 -3.0470 9.0944 19.9206 7.7480 -16.2225 -3.4871 2.3458 7.9827 13.0435 -4.9775 0.3401 -2.7095 3.7194 -11.5970 5.5336 10.1289 23.0786 0.8647 1.5589 -10.1704 -0.0000 0.0000 -0.4544 0.7359 -13.6419 -11.9513 -3.5659 -5.3724 18.1667 2.7116 -2.9970 -4.1649 -0.0000 -0.0000 -0.0001 
0.6908 95.5870 0.9537 -1.5018 -0.1068 -1.6669 0.0983 -0.0790 1.0783 0.0148 -2.3686 1.2363 0.0637 -2.3663 1.2325 -1.3460 0.7732 -2.4348 3.6998 -1.9417 5.6101 11.0536 7.0782 1.0369 -29.8095 -22.9942 9.4806 7.6308 -0.6664 -2.9623 0.6319 11.9367 10.8440 2.2193 15.3189 5.4909 12.8121 1.8911 4.1886 -0.1822 0.3940 -1.0410 -3.9394 -0.0804 9.9770 -22.0312 -6.3313 11.7415 -17.7497 -3.9644 8.8356 -19.5240 -4.7269 5.4609 -10.5357 -1.2924 4.6215 -18.9180 -0.6560 10.6209 -17.1865 -5.5925 -10.9217 -3.3954 0.0384 4.5740 -16.7171 1.3347 11.9471 -19.3496 -5.2722 -16.8393 -11.1630 2.2221 8.0606 -0.0316 0.2882 -0.7236 -14.7901 3.1361 0.3056 32.5890 24.8616 7.1030 -7.6166 0.0924 -1.9387 -5.1645 -27.5593 3.6174 -14.2755 0.3344 19.3226 -3.0713 -0.0596 -8.1670 4.4346 1.2925 -2.5948 -7.8595 -3.3000 12.5909 24.4656 6.9039 13.7539 8.5822 1.8477 1.1180 8.0283 1.4355 9.3594 15.2948 1.7649 7.2704 8.8492 -0.7567 5.4346 8.0798 3.6728 -10.1896 8.9136 -0.4690 12.2204 16.5774 -2.9483 9.1230 19.3020 7.7557 -16.6542 -3.0725 2.2034 8.2483 13.1695 -5.0195 0.4091 -2.6998 3.6175 -11.5430 5.4539 10.1661 23.1976 0.9836 1.6201 -10.3071 0.0000 0.0000 -0.4713 0.6914 -13.6859 -11.8283 -3.6344 -5.4066 18.1123 2.8509 -2.9379 -4.1382 0.0000 0.0000 -0.0001 
0.8184 95.5499 1.0039 -1.5579 -0.0703 -1.7262 0.0774 -0.0626 1.1022 -0.0208 -2.3338 1.2864 0.0296 -2.3317 1.2840 -1.3230 0.7685 -2.2803 3.7419 -1.9613 5.6575 11.0546 6.9969 1.0268 -29.7560 -22.8569 9.4492 7.6303 -0.6420 -2.9160 0.7150 11.9139 10.8980 2.2200 15.3202 5.4872 12.8093 1.8998 4.1836 -0.1912 0.3939 -1.0486 -3.8472 -0.0562 9.8237 -22.1475 -6.3489 11.8320 -17.8132 -3.9727 8.8831 -19.4779 -4.7371 5.3565 -10.6173 -1.2967 4.6722 -18.9643 -0.6528 10.6491 -17.2102 -5.5963 -10.9624 -3.4301 0.0417 4.5938 -16.7378 1.3385 11.9585 -19.4292 -5.2698 -16.8301 -11.1630 2.2221 8.0606 -0.0309 0.2881 -0.7240 -14.7465 3.2219 0.3067 32.6889 24.8944 7.2116 -7.6167 0.1203 -1.9915 -5.0341 -27.7471 3.4764 -14.0640 0.2412 19.2865 -3.2963 0.0810 -8.0418 4.3656 1.2891 -2.5081 -7.8168 -3.2780 12.6846 24.4762 6.9050 13.7635 8.5349 1.8368 1.0773 7.4363 1.3454 8.9412 15.7138 1.7638 7.5824 8.8998 -0.6579 5.4820 7.6074 3.6067 -10.5306 9.4942 -0.5770 12.6076 16.6603 -2.8563 9.1618 18.7395 7.7596 -17.0711 -2.6599 2.0597 8.5120 13.3084 -5.0659 0.4850 -2.6803 3.3820 -11.5290 5.4517 10.3158 23.4342 1.0533 1.6608 -10.4952 0.0000 -0.0000 -0.4852 0.6543 -13.7149 -11.7646 -3.6997 -5.4062 18.1975 2.9906 -2.9292 -4.1927 -0.0000 -0.0000 -0.0000 
0.9353 95.4861 1.0502 -1.6244 -0.0274 -1.7839 0.0497 -0.0420 1.1270 -0.0609 -2.2942 1.3376 -0.0090 -2.2922 1.3369 -1.2699 0.7545 -2.1029 3.7750 -1.9818 5.6807 11.1218 6.7990 1.0052 -29.7852 -22.6229 9.4167 7.6296 -0.6127 -2.8604 0.8237 11.9170 10.9437 2.2165 15.3204 5.4786 12.8084 1.9022 4.1829 -0.1933 0.3929 -1.0465 -3.7284 -0.0248 9.6168 -22.3113 -6.3733 11.9595 -17.9015 -3.9842 8.9494 -19.4036 -4.7504 5.2063 -10.7323 -1.3026 4.7436 -19.0286 -0.6483 10.6883 -17.2200 -5.5998 -11.0303 -3.4787 0.0465 4.6216 -16.7665 1.3437 11.9741 -19.4852 -5.2646 -16.8482 -11.1630 2.2221 8.0606 -0.0296 0.2879 -0.7247 -14.6447 3.3815 0.3098 32.7267 24.8702 7.3262 -7.6169 0.1649 -2.0762 -4.9530 -27.8691 3.3670 -13.8722 0.1599 19.2535 -3.4962 0.2047 -7.9326 4.3056 1.2864 -2.4318 -7.8816 -3.3009 12.6472 24.5985 6.9185 13.8744 8.5718 1.8454 1.1091 6.9050 1.2634 8.5315 16.1444 1.7602 7.9030 9.0095 -0.5750 5.5710 7.2383 3.5521 -10.8208 10.0222 -0.6788 12.9592 16.7530 -2.7842 9.2100 18.3250 7.7608 -17.3974 -2.2932 1.9301 8.7457 13.4507 -5.1137 0.5627 -2.6495 3.0500 -11.5806 5.5389 10.5479 23.8195 1.0685 1.6752 -10.7479 0.0000 -0.0000 -0.4954 0.6359 -13.7418 -11.7772 -3.7672 -5.3760 18.4386 3.1311 -2.9496 -4.3329 0.0000 -0.0000 0.0000 
1.0412 95.3992 1.0921 -1.7018 0.0168 -1.8379 0.0172 -0.0177 1.1516 -0.1035 -2.2509 1.3874 -0.0501 -2.2488 1.3884 -1.1821 0.7300 -1.9051 3.7937 -2.0018 5.6951 11.2798 6.4765 0.9725 -29.9332 -22.2854 9.3866 7.6290 -0.5794 -2.7972 0.9537 11.9393 10.9693 2.2098 15.3196 5.4669 12.8061 1.8970 4.1876 -0.1845 0.3904 -1.0300 -3.6211 0.0041 9.4074 -22.4735 -6.3971 12.0857 -17.9888 -3.9954 9.0148 -19.3378 -4.7664 5.0494 -10.8461 -1.3082 4.8143 -19.0920 -0.6439 10.7270 -17.2356 -5.6043 -11.1107 -3.5267 0.0512 4.6490 -16.7946 1.3489 11.9895 -19.5436 -5.2568 -16.8840 -11.1630 2.2221 8.0606 -0.0280 0.2876 -0.7256 -14.4772 3.6348 0.3141 32.6820 24.7713 7.4288 -7.6173 0.2245 -2.1892 -4.9260 -27.9125 3.2914 -13.7401 0.1098 19.2330 -3.6280 0.2852 -7.8621 4.2675 1.2848 -2.3829 -8.0761 -3.3768 12.4668 24.8447 6.9449 14.0979 8.7053 1.8761 1.2239 6.4595 1.1943 8.1580 16.5605 1.7545 8.2127 9.1791 -0.5168 5.7014 6.9975 3.5149 -11.0288 10.4550 -0.7648 13.2470 16.8485 -2.7400 9.2643 18.0953 7.7610 -17.5900 -2.0024 1.8261 8.9308 13.5813 -5.1578 0.6340 -2.6111 2.7040 -11.6970 5.6899 10.7920 24.3306 1.0431 1.6689 -11.0550 -0.0000 0.0000 -0.4949 0.6397 -13.7871 -11.8610 -3.8396 -5.3198 18.8109 3.2693 -2.9707 -4.5415 0.0000 -0.0000 -0.0001 
1.1349 95.2968 1.1301 -1.7824 0.0575 -1.8883 -0.0174 0.0080 1.1747 -0.1460 -2.2083 1.4334 -0.0912 -2.2061 1.4364 -1.0688 0.6979 -1.6933 3.7966 -2.0203 5.7188 11.5107 6.0687 0.9326 -30.1884 -21.8724 9.3665 7.6283 -0.5447 -2.7313 1.0904 11.9720 10.9692 2.1990 15.3175 5.4521 12.8057 1.8783 4.2007 -0.1608 0.3860 -0.9938 -3.5575 0.0220 9.2435 -22.5905 -6.4140 12.1768 -18.0516 -4.0034 9.0619 -19.2985 -4.7823 4.9190 -10.9284 -1.3122 4.8655 -19.1378 -0.6407 10.7549 -17.2518 -5.6090 -11.1903 -3.5611 0.0546 4.6686 -16.8151 1.3526 12.0007 -19.5832 -5.2472 -16.9388 -11.1630 2.2221 8.0606 -0.0273 0.2875 -0.7261 -14.2575 3.9721 0.3191 32.5614 24.6044 7.5105 -7.6179 0.2935 -2.3202 -4.9363 -27.8882 3.2429 -13.6727 0.0861 19.2211 -3.6922 0.3237 -7.8286 4.2500 1.2843 -2.3597 -8.4021 -3.5062 12.1543 25.2091 6.9822 14.4286 8.9344 1.9281 1.4212 6.0843 1.1359 7.8210 16.9458 1.7472 8.4996 9.4004 -0.4863 5.8669 6.8691 3.4944 -11.1519 10.7759 -0.8300 13.4602 16.9383 -2.7256 9.3195 18.0311 7.7611 -17.6475 -1.7979 1.7523 9.0607 13.6823 -5.1919 0.6890 -2.5718 2.4233 -11.8605 5.8585 10.9785 24.9163 1.0007 1.6560 -11.3944 0.0000 0.0000 -0.4856 0.6587 -13.8625 -11.9976 -3.9163 -5.2420 19.2718 3.4015 -2.9734 -4.7942 -0.0000 -0.0000 -0.0001 
